<svg width="508.0114868164062px" height="122px" xmlns="http://www.w3.org/2000/svg" viewBox="-4.005743408203102 14 508.0114868164062 122" style="background: rgba(0, 0, 0, 0);" preserveAspectRatio="xMidYMid"><defs><linearGradient id="editing-shiny-gradient" x1="0.9951340343707851" x2="0.0048659656292148745" y1="0.5695865504800328" y2="0.43041344951996724" gradientUnits="objectBoundingBox"><stop offset="0.0" stop-color="#2dc11d"></stop><stop offset="0.5" stop-color="#098522"></stop><stop offset="1.0" stop-color="#dd0b00"></stop></linearGradient><linearGradient id="editing-shiny-gradient2" x1="0" x2="0" y1="0" y2="1"><stop offset="0.2" stop-color="#fff" stop-opacity="0.8"></stop><stop offset="0.8" stop-color="#fff" stop-opacity="0"></stop></linearGradient><filter id="editing-shiny2" x="-100%" y="-100%" width="300%" height="300%"><feMorphology operator="erode" radius="2"></feMorphology></filter><filter id="editing-shiny" x="-100%" y="-100%" width="300%" height="300%"><feFlood flood-color="#fff" result="flood"></feFlood><feConvolveMatrix in="SourceGraphic" result="conv" order="8,8" divisor="1" kernelMatrix="0 0 0 0 0 0 0 0 0 0 0 1 1 0 0 0 0 0 0 1 1 0 0 0 0 0 1 0 0 1 0 0 0 0 1 0 0 1 0 0 0 1 0 0 0 0 1 0 0 1 1 0 0 1 1 0 0 0 0 1 1 0 0 0 "></feConvolveMatrix><feOffset dx="0" dy="4" in="conv" result="offset"></feOffset><feComposite operator="in" in="flood" in2="offset" result="comp"></feComposite><feGaussianBlur in="offset" stdDeviation="3" result="shadow"></feGaussianBlur><feColorMatrix in="shadow" type="matrix" values="0.7 0 0 0 0  0 0.7 0 0 0  0 0 0.7 0 0  0 0 0 0.3 0" result="dark-shadow"></feColorMatrix><feOffset dx="0" dy="4" in="dark-shadow" result="offset-shadow"></feOffset><feOffset dx="0" dy="2" in="conv" result="offset-2"></feOffset><feComposite operator="out" in="offset" in2="offset-2" result="edge-diff"></feComposite><feGaussianBlur in="edge-diff" stdDeviation="1" result="edge-blur"></feGaussianBlur><feColorMatrix in="edge-blur" result="edge-shadow" type="matrix" values="0 0 0 0 0  0 0 0 0 0  0 0 0 0 0  0 0 0 0.5 0"></feColorMatrix><feComposite operator="in" in="edge-shadow" in2="offset" result="edge-shadow-in"></feComposite><feOffset dx="0" dy="1" in="edge-shadow-in" result="edge-shadow-final"></feOffset><feMerge result="out"><feMergeNode in="offset-shadow"></feMergeNode><feMergeNode in="comp"></feMergeNode><feMergeNode in="edge-shadow-final"></feMergeNode><feMergeNode in="SourceGraphic"></feMergeNode></feMerge></filter></defs><g filter="url(#editing-shiny)"><g transform="translate(71.72758969664574, 99)"><path d="M14.34 0L0.38 0L8.51-42.24L22.59-42.24L14.34 0ZM25.02-6.40L25.02-6.40L25.02-6.40Q25.02-8.13 25.92-12.48L25.92-12.48L29.31-29.76L25.54-29.76L25.79-31.68L25.79-31.68Q33.47-33.98 40.90-39.62L40.90-39.62L43.97-39.62L42.43-32.64L47.42-32.64L46.85-29.76L41.92-29.76L38.66-12.48L38.66-12.48Q37.82-8.51 37.82-7.17L37.82-7.17L37.82-7.17Q37.82-4.10 40.51-3.46L40.51-3.46L40.51-3.46Q39.87-1.28 37.57 0L37.57 0L37.57 0Q35.26 1.28 32 1.28L32 1.28L32 1.28Q28.74 1.28 26.88-0.77L26.88-0.77L26.88-0.77Q25.02-2.82 25.02-6.40ZM49.63-1.92L49.63-1.92L49.63-1.92Q48.13-3.58 47.46-6.21L47.46-6.21L47.46-6.21Q46.78-8.83 46.78-13.12L46.78-13.12L46.78-13.12Q46.78-17.41 48.26-21.31L48.26-21.31L48.26-21.31Q49.73-25.22 52.42-28.03L52.42-28.03L52.42-28.03Q57.92-33.92 67.01-33.92L67.01-33.92L67.01-33.92Q70.27-33.92 72.64-32.83L72.64-32.83L83.58-33.92L78.85-8.96L78.85-8.96Q78.66-8.19 78.66-6.78L78.66-6.78L78.66-6.78Q78.66-5.38 79.52-4.48L79.52-4.48L79.52-4.48Q80.38-3.58 81.66-3.46L81.66-3.46L81.66-3.46Q81.02-1.28 78.69 0L78.69 0L78.69 0Q76.35 1.28 73.73 1.28L73.73 1.28L73.73 1.28Q71.10 1.28 69.34 0.29L69.34 0.29L69.34 0.29Q67.58-0.70 67.07-2.37L67.07-2.37L67.07-2.37Q66.05-0.77 63.87 0.26L63.87 0.26L63.87 0.26Q61.70 1.28 58.78 1.28L58.78 1.28L58.78 1.28Q55.87 1.28 53.50 0.51L53.50 0.51L53.50 0.51Q51.14-0.26 49.63-1.92ZM63.14-27.90L63.14-27.90L63.14-27.90Q62.40-26.75 61.76-24.80L61.76-24.80L61.76-24.80Q61.12-22.85 60.06-17.63L60.06-17.63L60.06-17.63Q59.01-12.42 59.01-8.70L59.01-8.70L59.01-8.70Q59.01-4.99 59.58-3.90L59.58-3.90L59.58-3.90Q60.16-2.82 61.18-2.82L61.18-2.82L61.18-2.82Q63.23-2.82 64.74-4.77L64.74-4.77L64.74-4.77Q66.24-6.72 66.82-10.18L66.82-10.18L70.21-28.93L70.21-28.93Q68.86-30.08 67.30-30.08L67.30-30.08L67.30-30.08Q65.73-30.08 64.80-29.57L64.80-29.57L64.80-29.57Q63.87-29.06 63.14-27.90ZM102.34-3.52L102.34-3.52L102.34-3.52Q100.35 1.28 94.02 1.28L94.02 1.28L94.02 1.28Q90.82 1.28 88.77-0.96L88.77-0.96L88.77-0.96Q87.10-2.82 87.10-4.93L87.10-4.93L87.10-4.93Q87.10-9.73 89.34-20.22L89.34-20.22L94.02-44.80L107.01-46.08L100.80-13.70L100.80-13.70Q99.71-8.96 99.71-7.30L99.71-7.30L99.71-7.30Q99.71-3.65 102.34-3.52ZM123.14-3.52L123.14-3.52L123.14-3.52Q121.15 1.28 114.82 1.28L114.82 1.28L114.82 1.28Q111.55 1.28 109.50-0.96L109.50-0.96L109.50-0.96Q107.78-2.94 107.78-4.93L107.78-4.93L107.78-4.93Q107.78-10.11 110.14-20.22L110.14-20.22L112.51-32.64L125.50-33.92L121.60-13.70L121.60-13.70Q120.51-8.96 120.51-7.30L120.51-7.30L120.51-7.30Q120.51-3.65 123.14-3.52ZM113.66-41.54L113.66-41.54L113.66-41.54Q113.66-44.03 115.74-45.38L115.74-45.38L115.74-45.38Q117.82-46.72 120.83-46.72L120.83-46.72L120.83-46.72Q123.84-46.72 125.66-45.38L125.66-45.38L125.66-45.38Q127.49-44.03 127.49-41.54L127.49-41.54L127.49-41.54Q127.49-39.04 125.47-37.76L125.47-37.76L125.47-37.76Q123.46-36.48 120.45-36.48L120.45-36.48L120.45-36.48Q117.44-36.48 115.55-37.76L115.55-37.76L115.55-37.76Q113.66-39.04 113.66-41.54ZM131.36-1.92L131.36-1.92L131.36-1.92Q129.86-3.58 129.18-6.21L129.18-6.21L129.18-6.21Q128.51-8.83 128.51-13.12L128.51-13.12L128.51-13.12Q128.51-17.41 129.98-21.31L129.98-21.31L129.98-21.31Q131.46-25.22 134.14-28.03L134.14-28.03L134.14-28.03Q139.65-33.92 148.74-33.92L148.74-33.92L148.74-33.92Q152-33.92 154.37-32.83L154.37-32.83L165.31-33.92L160.58-8.96L160.58-8.96Q160.38-8.19 160.38-6.78L160.38-6.78L160.38-6.78Q160.38-5.38 161.25-4.48L161.25-4.48L161.25-4.48Q162.11-3.58 163.39-3.46L163.39-3.46L163.39-3.46Q162.75-1.28 160.42 0L160.42 0L160.42 0Q158.08 1.28 155.46 1.28L155.46 1.28L155.46 1.28Q152.83 1.28 151.07 0.29L151.07 0.29L151.07 0.29Q149.31-0.70 148.80-2.37L148.80-2.37L148.80-2.37Q147.78-0.77 145.60 0.26L145.60 0.26L145.60 0.26Q143.42 1.28 140.51 1.28L140.51 1.28L140.51 1.28Q137.60 1.28 135.23 0.51L135.23 0.51L135.23 0.51Q132.86-0.26 131.36-1.92ZM144.86-27.90L144.86-27.90L144.86-27.90Q144.13-26.75 143.49-24.80L143.49-24.80L143.49-24.80Q142.85-22.85 141.79-17.63L141.79-17.63L141.79-17.63Q140.74-12.42 140.74-8.70L140.74-8.70L140.74-8.70Q140.74-4.99 141.31-3.90L141.31-3.90L141.31-3.90Q141.89-2.82 142.91-2.82L142.91-2.82L142.91-2.82Q144.96-2.82 146.46-4.77L146.46-4.77L146.46-4.77Q147.97-6.72 148.54-10.18L148.54-10.18L151.94-28.93L151.94-28.93Q150.59-30.08 149.02-30.08L149.02-30.08L149.02-30.08Q147.46-30.08 146.53-29.57L146.53-29.57L146.53-29.57Q145.60-29.06 144.86-27.90ZM195.84 1.28L195.84 1.28L195.84 1.28Q188.10 1.28 188.10-4.74L188.10-4.74L188.10-4.74Q188.16-6.40 188.67-9.22L188.67-9.22L189.82-15.10L189.82-15.10Q191.55-23.42 191.55-25.28L191.55-25.28L191.55-25.28Q191.55-28.99 189.38-28.99L189.38-28.99L189.38-28.99Q185.73-28.99 183.81-19.46L183.81-19.46L180.03 0L167.17 1.28L173.82-32.70L184.32-33.92L183.30-27.65L183.30-27.65Q186.30-33.92 195.52-33.92L195.52-33.92L195.52-33.92Q200-33.92 201.89-32.03L201.89-32.03L201.89-32.03Q203.78-30.14 203.78-25.92L203.78-25.92L203.78-25.92Q203.78-21.95 201.73-12.67L201.73-12.67L201.73-12.67Q200.77-8.51 200.77-6.94L200.77-6.94L200.77-6.94Q200.77-5.38 201.63-4.48L201.63-4.48L201.63-4.48Q202.50-3.58 203.78-3.46L203.78-3.46L203.78-3.46Q203.14-1.28 200.93 0L200.93 0L200.93 0Q198.72 1.28 195.84 1.28ZM238.02-33.92L238.02-33.92L238.02-33.92Q232.83-33.92 229.06-35.65L229.06-35.65L227.01-25.28L239.36-25.28L239.36-25.28Q239.36-21.89 237.66-19.74L237.66-19.74L237.66-19.74Q235.97-17.60 232.90-17.60L232.90-17.60L232.90-17.60Q229.57-17.60 226.50-18.82L226.50-18.82L226.50-18.82Q225.86-19.07 225.79-19.14L225.79-19.14L222.14 0L208.19 0L216.32-42.24L244.86-42.24L244.86-42.24Q244.86-38.34 243.04-36.13L243.04-36.13L243.04-36.13Q241.22-33.92 238.02-33.92ZM256.77 1.28L256.77 1.28L256.77 1.28Q242.69 1.28 242.69-11.97L242.69-11.97L242.69-11.97Q242.69-21.38 247.87-27.46L247.87-27.46L247.87-27.46Q253.38-33.92 262.91-33.92L262.91-33.92L262.91-33.92Q269.82-33.92 273.34-30.72L273.34-30.72L273.34-30.72Q276.86-27.52 276.86-20.80L276.86-20.80L276.86-20.80Q276.86-10.56 271.36-4.61L271.36-4.61L271.36-4.61Q265.98 1.28 256.77 1.28ZM258.43-26.56L258.43-26.56L258.43-26.56Q257.66-24.83 257.06-22.24L257.06-22.24L257.06-22.24Q256.45-19.65 255.68-15.55L255.68-15.55L255.68-15.55Q254.91-11.46 254.91-6.40L254.91-6.40L254.91-6.40Q254.91-4.74 255.46-3.65L255.46-3.65L255.46-3.65Q256.00-2.56 257.47-2.56L257.47-2.56L257.47-2.56Q258.94-2.56 259.87-3.26L259.87-3.26L259.87-3.26Q260.80-3.97 261.50-5.63L261.50-5.63L261.50-5.63Q262.78-8.58 263.81-14.05L263.81-14.05L263.81-14.05Q264.83-19.52 264.93-21.89L264.93-21.89L264.93-21.89Q265.02-24.26 265.02-26.02L265.02-26.02L265.02-26.02Q265.02-27.78 264.51-28.93L264.51-28.93L264.51-28.93Q264-30.08 262.56-30.08L262.56-30.08L262.56-30.08Q261.12-30.08 260.16-29.18L260.16-29.18L260.16-29.18Q259.20-28.29 258.43-26.56ZM294.59 1.28L294.59 1.28L294.59 1.28Q280.51 1.28 280.51-11.97L280.51-11.97L280.51-11.97Q280.51-21.38 285.70-27.46L285.70-27.46L285.70-27.46Q291.20-33.92 300.74-33.92L300.74-33.92L300.74-33.92Q307.65-33.92 311.17-30.72L311.17-30.72L311.17-30.72Q314.69-27.52 314.69-20.80L314.69-20.80L314.69-20.80Q314.69-10.56 309.18-4.61L309.18-4.61L309.18-4.61Q303.81 1.28 294.59 1.28ZM296.26-26.56L296.26-26.56L296.26-26.56Q295.49-24.83 294.88-22.24L294.88-22.24L294.88-22.24Q294.27-19.65 293.50-15.55L293.50-15.55L293.50-15.55Q292.74-11.46 292.74-6.40L292.74-6.40L292.74-6.40Q292.74-4.74 293.28-3.65L293.28-3.65L293.28-3.65Q293.82-2.56 295.30-2.56L295.30-2.56L295.30-2.56Q296.77-2.56 297.70-3.26L297.70-3.26L297.70-3.26Q298.62-3.97 299.33-5.63L299.33-5.63L299.33-5.63Q300.61-8.58 301.63-14.05L301.63-14.05L301.63-14.05Q302.66-19.52 302.75-21.89L302.75-21.89L302.75-21.89Q302.85-24.26 302.85-26.02L302.85-26.02L302.85-26.02Q302.85-27.78 302.34-28.93L302.34-28.93L302.34-28.93Q301.82-30.08 300.38-30.08L300.38-30.08L300.38-30.08Q298.94-30.08 297.98-29.18L297.98-29.18L297.98-29.18Q297.02-28.29 296.26-26.56ZM338.62-33.92L338.62-33.92L338.62-33.92Q340.93-33.92 342.72-33.41L342.72-33.41L342.72-33.41Q342.78-33.66 342.91-34.37L342.91-34.37L343.23-36.35L343.23-36.35Q343.49-37.63 343.87-39.74L343.87-39.74L344.90-44.80L357.63-46.08L350.53-8.96L350.53-8.96Q350.46-8.58 350.46-7.94L350.46-7.94L350.46-6.91L350.46-6.91Q350.46-5.50 351.17-4.45L351.17-4.45L351.17-4.45Q351.87-3.39 353.02-3.39L353.02-3.39L353.02-3.39Q351.74-0.38 347.84 0.90L347.84 0.90L347.84 0.90Q346.50 1.28 344.61 1.28L344.61 1.28L344.61 1.28Q342.72 1.28 340.99 0.29L340.99 0.29L340.99 0.29Q339.26-0.70 338.75-2.37L338.75-2.37L338.75-2.37Q337.73-0.70 335.68 0.29L335.68 0.29L335.68 0.29Q333.63 1.28 330.66 1.28L330.66 1.28L330.66 1.28Q327.68 1.28 325.22 0.51L325.22 0.51L325.22 0.51Q322.75-0.26 321.22-1.92L321.22-1.92L321.22-1.92Q318.40-5.18 318.40-12.61L318.40-12.61L318.40-12.61Q318.40-22.21 324.03-28.03L324.03-28.03L324.03-28.03Q329.66-33.92 338.62-33.92ZM338.18-30.08L338.18-30.08L338.18-30.08Q335.81-30.08 334.53-27.52L334.53-27.52L334.53-27.52Q333.25-24.96 331.94-18.62L331.94-18.62L331.94-18.62Q330.62-12.29 330.62-6.59L330.62-6.59L330.62-6.59Q330.62-2.69 332.93-2.69L332.93-2.69L332.93-2.69Q334.98-2.69 336.42-4.74L336.42-4.74L336.42-4.74Q337.86-6.78 338.43-10.18L338.43-10.18L341.89-28.93L341.89-28.93Q340.54-30.08 338.18-30.08Z" fill="url(#editing-shiny-gradient)"></path></g></g><g filter="url(#editing-shiny2)"><g transform="translate(71.49409970641136, 99.00000762939453)"><path d="M14.34 0L0.38 0L8.51-42.24L22.59-42.24L14.34 0ZM25.02-6.40L25.02-6.40L25.02-6.40Q25.02-8.13 25.92-12.48L25.92-12.48L29.31-29.76L25.54-29.76L25.79-31.68L25.79-31.68Q33.47-33.98 40.90-39.62L40.90-39.62L43.97-39.62L42.43-32.64L47.42-32.64L46.85-29.76L41.92-29.76L38.66-12.48L38.66-12.48Q37.82-8.51 37.82-7.17L37.82-7.17L37.82-7.17Q37.82-4.10 40.51-3.46L40.51-3.46L40.51-3.46Q39.87-1.28 37.57 0L37.57 0L37.57 0Q35.26 1.28 32 1.28L32 1.28L32 1.28Q28.74 1.28 26.88-0.77L26.88-0.77L26.88-0.77Q25.02-2.82 25.02-6.40ZM49.63-1.92L49.63-1.92L49.63-1.92Q48.13-3.58 47.46-6.21L47.46-6.21L47.46-6.21Q46.78-8.83 46.78-13.12L46.78-13.12L46.78-13.12Q46.78-17.41 48.26-21.31L48.26-21.31L48.26-21.31Q49.73-25.22 52.42-28.03L52.42-28.03L52.42-28.03Q57.92-33.92 67.01-33.92L67.01-33.92L67.01-33.92Q70.27-33.92 72.64-32.83L72.64-32.83L83.58-33.92L78.85-8.96L78.85-8.96Q78.66-8.19 78.66-6.78L78.66-6.78L78.66-6.78Q78.66-5.38 79.52-4.48L79.52-4.48L79.52-4.48Q80.38-3.58 81.66-3.46L81.66-3.46L81.66-3.46Q81.02-1.28 78.69 0L78.69 0L78.69 0Q76.35 1.28 73.73 1.28L73.73 1.28L73.73 1.28Q71.10 1.28 69.34 0.29L69.34 0.29L69.34 0.29Q67.58-0.70 67.07-2.37L67.07-2.37L67.07-2.37Q66.05-0.77 63.87 0.26L63.87 0.26L63.87 0.26Q61.70 1.28 58.78 1.28L58.78 1.28L58.78 1.28Q55.87 1.28 53.50 0.51L53.50 0.51L53.50 0.51Q51.14-0.26 49.63-1.92ZM63.14-27.90L63.14-27.90L63.14-27.90Q62.40-26.75 61.76-24.80L61.76-24.80L61.76-24.80Q61.12-22.85 60.06-17.63L60.06-17.63L60.06-17.63Q59.01-12.42 59.01-8.70L59.01-8.70L59.01-8.70Q59.01-4.99 59.58-3.90L59.58-3.90L59.58-3.90Q60.16-2.82 61.18-2.82L61.18-2.82L61.18-2.82Q63.23-2.82 64.74-4.77L64.74-4.77L64.74-4.77Q66.24-6.72 66.82-10.18L66.82-10.18L70.21-28.93L70.21-28.93Q68.86-30.08 67.30-30.08L67.30-30.08L67.30-30.08Q65.73-30.08 64.80-29.57L64.80-29.57L64.80-29.57Q63.87-29.06 63.14-27.90ZM102.34-3.52L102.34-3.52L102.34-3.52Q100.35 1.28 94.02 1.28L94.02 1.28L94.02 1.28Q90.82 1.28 88.77-0.96L88.77-0.96L88.77-0.96Q87.10-2.82 87.10-4.93L87.10-4.93L87.10-4.93Q87.10-9.73 89.34-20.22L89.34-20.22L94.02-44.80L107.01-46.08L100.80-13.70L100.80-13.70Q99.71-8.96 99.71-7.30L99.71-7.30L99.71-7.30Q99.71-3.65 102.34-3.52ZM123.14-3.52L123.14-3.52L123.14-3.52Q121.15 1.28 114.82 1.28L114.82 1.28L114.82 1.28Q111.55 1.28 109.50-0.96L109.50-0.96L109.50-0.96Q107.78-2.94 107.78-4.93L107.78-4.93L107.78-4.93Q107.78-10.11 110.14-20.22L110.14-20.22L112.51-32.64L125.50-33.92L121.60-13.70L121.60-13.70Q120.51-8.96 120.51-7.30L120.51-7.30L120.51-7.30Q120.51-3.65 123.14-3.52ZM113.66-41.54L113.66-41.54L113.66-41.54Q113.66-44.03 115.74-45.38L115.74-45.38L115.74-45.38Q117.82-46.72 120.83-46.72L120.83-46.72L120.83-46.72Q123.84-46.72 125.66-45.38L125.66-45.38L125.66-45.38Q127.49-44.03 127.49-41.54L127.49-41.54L127.49-41.54Q127.49-39.04 125.47-37.76L125.47-37.76L125.47-37.76Q123.46-36.48 120.45-36.48L120.45-36.48L120.45-36.48Q117.44-36.48 115.55-37.76L115.55-37.76L115.55-37.76Q113.66-39.04 113.66-41.54ZM131.36-1.92L131.36-1.92L131.36-1.92Q129.86-3.58 129.18-6.21L129.18-6.21L129.18-6.21Q128.51-8.83 128.51-13.12L128.51-13.12L128.51-13.12Q128.51-17.41 129.98-21.31L129.98-21.31L129.98-21.31Q131.46-25.22 134.14-28.03L134.14-28.03L134.14-28.03Q139.65-33.92 148.74-33.92L148.74-33.92L148.74-33.92Q152-33.92 154.37-32.83L154.37-32.83L165.31-33.92L160.58-8.96L160.58-8.96Q160.38-8.19 160.38-6.78L160.38-6.78L160.38-6.78Q160.38-5.38 161.25-4.48L161.25-4.48L161.25-4.48Q162.11-3.58 163.39-3.46L163.39-3.46L163.39-3.46Q162.75-1.28 160.42 0L160.42 0L160.42 0Q158.08 1.28 155.46 1.28L155.46 1.28L155.46 1.28Q152.83 1.28 151.07 0.29L151.07 0.29L151.07 0.29Q149.31-0.70 148.80-2.37L148.80-2.37L148.80-2.37Q147.78-0.77 145.60 0.26L145.60 0.26L145.60 0.26Q143.42 1.28 140.51 1.28L140.51 1.28L140.51 1.28Q137.60 1.28 135.23 0.51L135.23 0.51L135.23 0.51Q132.86-0.26 131.36-1.92ZM144.86-27.90L144.86-27.90L144.86-27.90Q144.13-26.75 143.49-24.80L143.49-24.80L143.49-24.80Q142.85-22.85 141.79-17.63L141.79-17.63L141.79-17.63Q140.74-12.42 140.74-8.70L140.74-8.70L140.74-8.70Q140.74-4.99 141.31-3.90L141.31-3.90L141.31-3.90Q141.89-2.82 142.91-2.82L142.91-2.82L142.91-2.82Q144.96-2.82 146.46-4.77L146.46-4.77L146.46-4.77Q147.97-6.72 148.54-10.18L148.54-10.18L151.94-28.93L151.94-28.93Q150.59-30.08 149.02-30.08L149.02-30.08L149.02-30.08Q147.46-30.08 146.53-29.57L146.53-29.57L146.53-29.57Q145.60-29.06 144.86-27.90ZM195.84 1.28L195.84 1.28L195.84 1.28Q188.10 1.28 188.10-4.74L188.10-4.74L188.10-4.74Q188.16-6.40 188.67-9.22L188.67-9.22L189.82-15.10L189.82-15.10Q191.55-23.42 191.55-25.28L191.55-25.28L191.55-25.28Q191.55-28.99 189.38-28.99L189.38-28.99L189.38-28.99Q185.73-28.99 183.81-19.46L183.81-19.46L180.03 0L167.17 1.28L173.82-32.70L184.32-33.92L183.30-27.65L183.30-27.65Q186.30-33.92 195.52-33.92L195.52-33.92L195.52-33.92Q200-33.92 201.89-32.03L201.89-32.03L201.89-32.03Q203.78-30.14 203.78-25.92L203.78-25.92L203.78-25.92Q203.78-21.95 201.73-12.67L201.73-12.67L201.73-12.67Q200.77-8.51 200.77-6.94L200.77-6.94L200.77-6.94Q200.77-5.38 201.63-4.48L201.63-4.48L201.63-4.48Q202.50-3.58 203.78-3.46L203.78-3.46L203.78-3.46Q203.14-1.28 200.93 0L200.93 0L200.93 0Q198.72 1.28 195.84 1.28ZM238.02-33.92L238.02-33.92L238.02-33.92Q232.83-33.92 229.06-35.65L229.06-35.65L227.01-25.28L239.36-25.28L239.36-25.28Q239.36-21.89 237.66-19.74L237.66-19.74L237.66-19.74Q235.97-17.60 232.90-17.60L232.90-17.60L232.90-17.60Q229.57-17.60 226.50-18.82L226.50-18.82L226.50-18.82Q225.86-19.07 225.79-19.14L225.79-19.14L222.14 0L208.19 0L216.32-42.24L244.86-42.24L244.86-42.24Q244.86-38.34 243.04-36.13L243.04-36.13L243.04-36.13Q241.22-33.92 238.02-33.92ZM256.77 1.28L256.77 1.28L256.77 1.28Q242.69 1.28 242.69-11.97L242.69-11.97L242.69-11.97Q242.69-21.38 247.87-27.46L247.87-27.46L247.87-27.46Q253.38-33.92 262.91-33.92L262.91-33.92L262.91-33.92Q269.82-33.92 273.34-30.72L273.34-30.72L273.34-30.72Q276.86-27.52 276.86-20.80L276.86-20.80L276.86-20.80Q276.86-10.56 271.36-4.61L271.36-4.61L271.36-4.61Q265.98 1.28 256.77 1.28ZM258.43-26.56L258.43-26.56L258.43-26.56Q257.66-24.83 257.06-22.24L257.06-22.24L257.06-22.24Q256.45-19.65 255.68-15.55L255.68-15.55L255.68-15.55Q254.91-11.46 254.91-6.40L254.91-6.40L254.91-6.40Q254.91-4.74 255.46-3.65L255.46-3.65L255.46-3.65Q256.00-2.56 257.47-2.56L257.47-2.56L257.47-2.56Q258.94-2.56 259.87-3.26L259.87-3.26L259.87-3.26Q260.80-3.97 261.50-5.63L261.50-5.63L261.50-5.63Q262.78-8.58 263.81-14.05L263.81-14.05L263.81-14.05Q264.83-19.52 264.93-21.89L264.93-21.89L264.93-21.89Q265.02-24.26 265.02-26.02L265.02-26.02L265.02-26.02Q265.02-27.78 264.51-28.93L264.51-28.93L264.51-28.93Q264-30.08 262.56-30.08L262.56-30.08L262.56-30.08Q261.12-30.08 260.16-29.18L260.16-29.18L260.16-29.18Q259.20-28.29 258.43-26.56ZM294.59 1.28L294.59 1.28L294.59 1.28Q280.51 1.28 280.51-11.97L280.51-11.97L280.51-11.97Q280.51-21.38 285.70-27.46L285.70-27.46L285.70-27.46Q291.20-33.92 300.74-33.92L300.74-33.92L300.74-33.92Q307.65-33.92 311.17-30.72L311.17-30.72L311.17-30.72Q314.69-27.52 314.69-20.80L314.69-20.80L314.69-20.80Q314.69-10.56 309.18-4.61L309.18-4.61L309.18-4.61Q303.81 1.28 294.59 1.28ZM296.26-26.56L296.26-26.56L296.26-26.56Q295.49-24.83 294.88-22.24L294.88-22.24L294.88-22.24Q294.27-19.65 293.50-15.55L293.50-15.55L293.50-15.55Q292.74-11.46 292.74-6.40L292.74-6.40L292.74-6.40Q292.74-4.74 293.28-3.65L293.28-3.65L293.28-3.65Q293.82-2.56 295.30-2.56L295.30-2.56L295.30-2.56Q296.77-2.56 297.70-3.26L297.70-3.26L297.70-3.26Q298.62-3.97 299.33-5.63L299.33-5.63L299.33-5.63Q300.61-8.58 301.63-14.05L301.63-14.05L301.63-14.05Q302.66-19.52 302.75-21.89L302.75-21.89L302.75-21.89Q302.85-24.26 302.85-26.02L302.85-26.02L302.85-26.02Q302.85-27.78 302.34-28.93L302.34-28.93L302.34-28.93Q301.82-30.08 300.38-30.08L300.38-30.08L300.38-30.08Q298.94-30.08 297.98-29.18L297.98-29.18L297.98-29.18Q297.02-28.29 296.26-26.56ZM338.62-33.92L338.62-33.92L338.62-33.92Q340.93-33.92 342.72-33.41L342.72-33.41L342.72-33.41Q342.78-33.66 342.91-34.37L342.91-34.37L343.23-36.35L343.23-36.35Q343.49-37.63 343.87-39.74L343.87-39.74L344.90-44.80L357.63-46.08L350.53-8.96L350.53-8.96Q350.46-8.58 350.46-7.94L350.46-7.94L350.46-6.91L350.46-6.91Q350.46-5.50 351.17-4.45L351.17-4.45L351.17-4.45Q351.87-3.39 353.02-3.39L353.02-3.39L353.02-3.39Q351.74-0.38 347.84 0.90L347.84 0.90L347.84 0.90Q346.50 1.28 344.61 1.28L344.61 1.28L344.61 1.28Q342.72 1.28 340.99 0.29L340.99 0.29L340.99 0.29Q339.26-0.70 338.75-2.37L338.75-2.37L338.75-2.37Q337.73-0.70 335.68 0.29L335.68 0.29L335.68 0.29Q333.63 1.28 330.66 1.28L330.66 1.28L330.66 1.28Q327.68 1.28 325.22 0.51L325.22 0.51L325.22 0.51Q322.75-0.26 321.22-1.92L321.22-1.92L321.22-1.92Q318.40-5.18 318.40-12.61L318.40-12.61L318.40-12.61Q318.40-22.21 324.03-28.03L324.03-28.03L324.03-28.03Q329.66-33.92 338.62-33.92ZM338.18-30.08L338.18-30.08L338.18-30.08Q335.81-30.08 334.53-27.52L334.53-27.52L334.53-27.52Q333.25-24.96 331.94-18.62L331.94-18.62L331.94-18.62Q330.62-12.29 330.62-6.59L330.62-6.59L330.62-6.59Q330.62-2.69 332.93-2.69L332.93-2.69L332.93-2.69Q334.98-2.69 336.42-4.74L336.42-4.74L336.42-4.74Q337.86-6.78 338.43-10.18L338.43-10.18L341.89-28.93L341.89-28.93Q340.54-30.08 338.18-30.08Z" fill="url(#editing-shiny-gradient2)"></path></g></g><style>text {
  font-size: 64px;
  font-family: Arial Black;
  dominant-baseline: central;
  text-anchor: middle;
}</style></svg>